PathFileType	4	(x/y/z)	S02_M20_T09
DataRate	CameraRate	NumFrames	NumMarkers	Units	OrigDataRate	OrigDataStartFrame	OrigNumFrames
240	240	7	51	mm	240	227	453
Frame#	Time	Sternum			R.Acromium			L.Acromium			Top.Head			R.ASIS			L.ASIS			R.PSIS			L.PSIS			R.Great.Tro			L.Great.Tro			R.Iliac.Crest			L.Iliac.Crest			V.Sacral			R.Thigh.Upper.Post			R.Thigh.Lower.Ant			R.Thigh.Lower.Post			R.Thigh.Upper.Ant			R.Knee.Lat			R.Knee.Med			R.Shank.Upper.Post			R.Shank.Lower.Ant			R.Shank.Lower.Post			R.Shank.Upper.Ant			R.Ankle.Lat			R.Ankle.Med			R.Heel.Upper			R.Heel.Med			R.Heel.Lat			R.Toe.Lat			R.Toe.Med			R.Toe.Tip			L.Thigh.Upper.Post			L.Thigh.Lower.Ant			L.Thigh.Lower.Post			L.Thigh.Upper.Ant			L.Knee.Lat			L.Knee.Med			L.Shank.Upper.Post			L.Shank.Lower.Ant			L.Shank.Lower.Post			L.Shank.Upper.Ant			L.Ankle.Lat			L.Ankle.Med			L.Heel.Upper			L.Heel.Med			L.Heel.Lat			L.Toe.Lat			L.Toe.Med			L.Toe.Tip			Cervical.Spine			Back			
		X1	Y1	Z1	X2	Y2	Z2	X3	Y3	Z3	X4	Y4	Z4	X5	Y5	Z5	X6	Y6	Z6	X7	Y7	Z7	X8	Y8	Z8	X9	Y9	Z9	X10	Y10	Z10	X11	Y11	Z11	X12	Y12	Z12	X13	Y13	Z13	X14	Y14	Z14	X15	Y15	Z15	X16	Y16	Z16	X17	Y17	Z17	X18	Y18	Z18	X19	Y19	Z19	X20	Y20	Z20	X21	Y21	Z21	X22	Y22	Z22	X23	Y23	Z23	X24	Y24	Z24	X25	Y25	Z25	X26	Y26	Z26	X27	Y27	Z27	X28	Y28	Z28	X29	Y29	Z29	X30	Y30	Z30	X31	Y31	Z31	X32	Y32	Z32	X33	Y33	Z33	X34	Y34	Z34	X35	Y35	Z35	X36	Y36	Z36	X37	Y37	Z37	X38	Y38	Z38	X39	Y39	Z39	X40	Y40	Z40	X41	Y41	Z41	X42	Y42	Z42	X43	Y43	Z43	X44	Y44	Z44	X45	Y45	Z45	X46	Y46	Z46	X47	Y47	Z47	X48	Y48	Z48	X49	Y49	Z49	X50	Y50	Z50	X51	Y51	Z51	

227	0.94167	-253.44	1106.2	306.49	-355.91	1331.3	467.4	-356.99	1354.8	176.07	-315.83	1630.1	350.55	-276.64	930.48	407.68	-286.75	923.95	193.54	-490.47	982.67	361.02	-497.74	985.33	287.33	-348.8	821.04	499.55	-418.15	831.95	116.49	-372.28	981.05	471.61	-410.25	978.37	135.92	-523.58	939.23	320.56	-323.92	614.52	467.15	-266.64	543.6	420.98	-334.43	527.72	443.68	-260.45	630.28	443.64	-311.9	453.08	418.59	-331.67	447.27	278.69	-416.43	256.26	400.41	-353.16	167.6	372.8	-418.98	183.5	385.46	-345.56	234.72	393.13	-416.51	91.669	365.97	-411.74	106.89	285.17	-482.55	80.995	312.26	-470.88	48.73	284.06	-478.87	49.344	348.06	-316.75	38.548	383.55	-287.86	33.042	275.68	-236.88	58.265	329.2	-374.96	600.99	129.44	-282.08	544.26	110.06	-347.54	515.2	144.4	-316.65	632.97	100.31	-284.61	461.58	119.01	-250.9	456.45	255.18	-438.1	364.15	150.27	-428.42	253.19	155.87	-478.62	305.2	170.51	-393.37	318.92	137	-518.94	193.23	182.08	-497.15	184.84	262.24	-580.64	198.95	231.19	-580.6	174.42	266.11	-598.24	172.78	206.75	-476.21	71.084	152.17	-431.4	71.074	252.05	-382.46	51.632	195.86	-433.23	1405.1	329.18	-510.69	1154.4	322.22
228	0.94583	-248.83	1107.2	306.85	-351.17	1332.3	467.62	-352.56	1355.7	176.29	-310.91	1630.8	350.69	-272.49	931.21	408.49	-281.58	925.04	194.29	-486.06	983.28	360.6	-492.97	986.09	286.9	-345.16	821.39	499.69	-412.31	833.1	116.24	-368.54	981.59	471.78	-404.81	979.37	135.99	-519.01	939.96	319.91	-321.96	614.62	467.24	-265.22	543.14	421.27	-333.24	527.92	443.71	-258.17	629.72	444.02	-311.36	453.09	418.66	-330.8	447.42	278.7	-416.25	256.54	400.42	-353.02	167.77	372.88	-418.86	183.77	385.39	-345.34	234.86	393.22	-416.42	91.812	365.97	-411.58	107.05	285.14	-482.43	81.236	312.27	-470.86	48.929	284.02	-478.81	49.573	348.02	-316.73	38.544	383.55	-287.84	33.067	275.69	-236.84	58.225	329.23	-367.82	601.88	129.47	-274.36	545.98	110.45	-339.62	516.38	144.64	-309.73	634.34	100.41	-276.05	463.23	119.61	-242.6	458.62	255.69	-427.67	362.53	150.72	-415.64	251.8	155.81	-466.85	302.7	170.72	-381.95	318.3	137.19	-504.8	189.75	181.91	-482.62	181.51	262.03	-566.62	193.77	231.18	-565.81	168.94	265.88	-583.58	167.23	206.63	-459.21	68.836	151.28	-414.09	69.456	251.03	-364.86	51.474	194.64	-428.54	1405.8	329.43	-506.03	1155.1	322.56
229	0.95	-244.21	1108.1	307.21	-346.43	1333.2	467.82	-348.15	1356.5	176.5	-306	1631.5	350.82	-268.35	931.88	409.3	-276.42	926.08	195.04	-481.66	983.84	360.16	-488.2	986.8	286.45	-341.51	821.69	499.82	-406.46	834.2	115.96	-364.83	982.1	471.95	-399.36	980.32	136.04	-514.43	940.62	319.22	-320.01	614.71	467.32	-263.8	542.67	421.57	-332.07	528.12	443.72	-255.91	629.14	444.41	-310.81	453.1	418.73	-329.91	447.55	278.69	-416.06	256.8	400.41	-352.87	167.93	372.94	-418.74	184.04	385.33	-345.12	235	393.28	-416.32	91.954	365.96	-411.43	107.22	285.1	-482.3	81.47	312.28	-470.85	49.125	283.98	-478.76	49.797	347.98	-316.71	38.54	383.54	-287.83	33.091	275.69	-236.79	58.188	329.25	-360.74	602.74	129.5	-266.71	547.64	110.88	-331.79	517.52	144.89	-302.86	635.66	100.53	-267.6	464.84	120.24	-234.44	460.73	256.25	-417.24	360.84	151.19	-402.81	250.4	155.74	-455.03	300.13	170.93	-370.53	317.65	137.4	-490.55	186.25	181.7	-467.95	178.14	261.79	-552.44	188.58	231.15	-550.84	163.45	265.62	-568.74	161.69	206.49	-442.15	66.641	150.34	-396.7	67.868	249.96	-347.23	51.356	193.36	-423.86	1406.4	329.68	-501.37	1155.7	322.88
230	0.95417	-239.6	1109	307.58	-341.68	1334.1	468.02	-343.74	1357.3	176.71	-301.09	1632.1	350.93	-264.22	932.5	410.1	-271.27	927.06	195.81	-477.27	984.34	359.69	-483.44	987.44	285.98	-337.87	821.96	499.95	-400.58	835.25	115.67	-361.13	982.57	472.1	-393.9	981.23	136.08	-509.86	941.22	318.52	-318.08	614.79	467.4	-262.4	542.18	421.87	-330.9	528.31	443.73	-253.68	628.54	444.8	-310.25	453.11	418.8	-328.97	447.66	278.68	-415.86	257.07	400.38	-352.73	168.1	372.99	-418.6	184.29	385.26	-344.9	235.14	393.33	-416.23	92.095	365.96	-411.29	107.38	285.06	-482.17	81.696	312.29	-470.83	49.316	283.94	-478.7	50.017	347.95	-316.69	38.535	383.53	-287.83	33.113	275.7	-236.74	58.153	329.27	-353.7	603.56	129.54	-259.13	549.24	111.34	-324.05	518.62	145.16	-296.03	636.92	100.67	-259.26	466.39	120.9	-226.42	462.77	256.86	-406.82	359.08	151.67	-389.94	248.98	155.66	-443.15	297.51	171.14	-359.13	316.97	137.6	-476.18	182.74	181.46	-453.17	174.76	261.51	-538.09	183.37	231.11	-535.69	157.97	265.34	-553.73	156.16	206.33	-425.03	64.506	149.35	-379.25	66.321	248.85	-329.59	51.29	192.03	-419.18	1407	329.91	-496.72	1156.3	323.18
231	0.95833	-234.98	1109.8	307.95	-336.92	1335	468.21	-339.34	1358	176.9	-296.19	1632.6	351.02	-260.1	933.07	410.89	-266.13	927.98	196.57	-472.88	984.8	359.21	-478.68	988.02	285.49	-334.23	822.17	500.07	-394.69	836.24	115.37	-357.43	983	472.23	-388.43	982.09	136.11	-505.28	941.75	317.8	-316.17	614.85	467.48	-261.01	541.68	422.18	-329.73	528.5	443.73	-251.46	627.93	445.19	-309.69	453.11	418.88	-328	447.76	278.66	-415.63	257.32	400.33	-352.6	168.26	373.02	-418.47	184.55	385.2	-344.68	235.27	393.37	-416.14	92.235	365.94	-411.17	107.55	285.01	-482.05	81.911	312.29	-470.8	49.504	283.89	-478.65	50.231	347.9	-316.67	38.53	383.52	-287.83	33.134	275.71	-236.7	58.12	329.29	-346.71	604.35	129.58	-251.63	550.77	111.83	-316.4	519.67	145.44	-289.23	638.12	100.82	-251.02	467.88	121.6	-218.54	464.74	257.5	-396.39	357.24	152.16	-377.02	247.56	155.58	-431.21	294.84	171.34	-347.74	316.26	137.82	-461.7	179.24	181.2	-438.26	171.38	261.21	-523.57	178.17	231.04	-520.37	152.51	265.04	-538.54	150.66	206.14	-407.84	62.442	148.33	-361.74	64.826	247.7	-311.94	51.286	190.66	-414.5	1407.5	330.15	-492.08	1156.8	323.47
232	0.9625	-230.37	1110.5	308.32	-332.16	1335.8	468.38	-334.94	1358.7	177.08	-291.3	1633.2	351.1	-255.98	933.57	411.67	-260.99	928.84	197.32	-468.5	985.19	358.72	-473.92	988.54	284.98	-330.6	822.35	500.2	-388.79	837.17	115.05	-353.73	983.38	472.35	-382.96	982.9	136.13	-500.69	942.22	317.06	-314.26	614.9	467.56	-259.62	541.17	422.5	-328.58	528.67	443.73	-249.26	627.31	445.59	-309.12	453.1	418.96	-326.99	447.84	278.64	-415.39	257.58	400.27	-352.47	168.42	373.03	-418.33	184.79	385.15	-344.46	235.4	393.39	-416.06	92.375	365.92	-411.05	107.71	284.96	-481.93	82.117	312.28	-470.76	49.689	283.85	-478.6	50.439	347.86	-316.66	38.524	383.51	-287.84	33.152	275.72	-236.66	58.089	329.32	-339.78	605.1	129.63	-244.19	552.24	112.36	-308.84	520.68	145.73	-282.47	639.26	100.99	-242.88	469.31	122.33	-210.79	466.64	258.19	-385.96	355.33	152.64	-364.07	246.13	155.5	-419.22	292.12	171.54	-336.37	315.53	138.04	-447.12	175.74	180.9	-423.24	168	260.88	-508.89	172.99	230.94	-504.89	147.09	264.72	-523.2	145.19	205.92	-390.58	60.456	147.27	-344.17	63.398	246.53	-294.27	51.354	189.26	-409.82	1408	330.37	-487.44	1157.3	323.74
233	0.96667	-225.75	1111.2	308.69	-327.39	1336.5	468.55	-330.55	1359.3	177.26	-286.42	1633.6	351.15	-251.87	934.02	412.42	-255.87	929.63	198.07	-464.12	985.53	358.21	-469.15	988.99	284.46	-326.99	822.48	500.32	-382.89	838.05	114.73	-350.03	983.73	472.45	-377.49	983.67	136.15	-496.09	942.63	316.31	-312.37	614.95	467.64	-258.24	540.66	422.83	-327.42	528.84	443.73	-247.09	626.68	445.99	-308.55	453.09	419.05	-325.94	447.89	278.62	-415.14	257.82	400.2	-352.35	168.57	373.03	-418.19	185.03	385.09	-344.25	235.53	393.41	-415.98	92.514	365.9	-410.94	107.88	284.91	-481.82	82.313	312.26	-470.71	49.87	283.8	-478.55	50.641	347.81	-316.65	38.517	383.5	-287.86	33.169	275.74	-236.62	58.06	329.34	-332.9	605.79	129.69	-236.83	553.64	112.92	-301.37	521.63	146.03	-275.75	640.33	101.19	-234.85	470.67	123.08	-203.18	468.45	258.91	-375.54	353.36	153.13	-351.07	244.7	155.42	-407.18	289.35	171.73	-325.02	314.78	138.27	-432.43	172.28	180.58	-408.12	164.65	260.53	-494.06	167.83	230.82	-489.25	141.73	264.38	-507.69	139.77	205.68	-373.27	58.557	146.19	-326.56	62.051	245.34	-276.59	51.506	187.84	-405.15	1408.5	330.59	-482.81	1157.8	323.99
